<?xml version="1.0" standalone="no"?>
<!DOCTYPE svg PUBLIC "-//W3C//DTD SVG 20010904//EN"
 "http://www.w3.org/TR/2001/REC-SVG-20010904/DTD/svg10.dtd">
<svg version="1.0" xmlns="http://www.w3.org/2000/svg"
 width="2289.000000pt" height="2289.000000pt" viewBox="0 0 2289.000000 2289.000000"
 preserveAspectRatio="xMidYMid meet">
<metadata>
Created by potrace 1.16, written by Peter Selinger 2001-2019
</metadata>
<g transform="translate(0.000000,2289.000000) scale(0.100000,-0.100000)"
fill="#000000" stroke="none">
<path d="M17573 18119 c-123 -18 -197 -72 -288 -210 -90 -137 -156 -296 -209
-504 -42 -164 -114 -591 -127 -751 -14 -177 -7 -496 16 -665 52 -393 192 -748
380 -958 30 -34 55 -71 55 -82 0 -26 23 -70 49 -91 54 -45 161 -118 211 -143
62 -32 177 -45 228 -27 22 7 33 7 42 -1 9 -9 16 -7 30 11 10 12 65 46 121 74
157 78 238 164 294 311 51 135 30 266 -58 363 -19 22 -47 64 -62 94 -39 79
-51 90 -100 90 -42 0 -44 -2 -138 -112 -52 -62 -106 -122 -118 -133 -45 -38
-118 -75 -148 -75 -38 0 -121 49 -186 110 -27 26 -80 67 -116 93 -75 52 -123
116 -116 154 3 14 -4 51 -15 82 -18 50 -20 72 -14 211 14 380 40 623 91 852
26 116 83 277 123 348 42 75 94 154 118 180 83 89 77 86 187 105 74 13 115 15
143 9 37 -9 42 -14 79 -92 46 -96 86 -133 148 -139 54 -5 86 13 114 63 33 59
39 143 19 243 -27 131 -119 397 -153 439 -39 49 -113 98 -176 117 -93 28 -330
47 -424 34z m282 -99 c119 -34 155 -46 210 -71 71 -32 91 -52 98 -99 3 -19 10
-53 16 -75 21 -78 14 -122 -31 -206 -24 -44 -46 -79 -49 -79 -3 0 -13 25 -23
56 -33 103 -103 154 -236 169 -155 18 -380 -91 -445 -215 -22 -43 -124 -349
-150 -449 -76 -304 -100 -457 -111 -736 -13 -325 35 -523 180 -742 94 -142
210 -241 364 -310 52 -23 61 -24 101 -14 62 16 123 65 216 171 44 50 95 103
114 117 l34 26 45 -47 44 -47 -5 -77 c-6 -93 -34 -172 -91 -255 -31 -45 -48
-62 -65 -62 -23 0 -34 -12 -45 -47 -6 -22 -85 -79 -155 -113 -71 -36 -172 -44
-261 -21 -182 47 -335 224 -465 537 -101 243 -155 571 -155 940 0 289 20 484
76 739 59 270 117 437 232 670 96 193 126 230 207 251 42 11 301 3 350 -11z"/>
<path d="M13853 18060 c-45 -27 -62 -57 -95 -168 -21 -70 -31 -132 -37 -227
-8 -121 -1 -399 15 -542 3 -35 2 -63 -2 -63 -5 0 -20 15 -33 33 -57 77 -161
134 -268 146 -165 18 -268 -22 -382 -147 -144 -157 -232 -421 -262 -779 -19
-234 8 -564 62 -758 77 -278 123 -376 208 -446 23 -19 62 -62 87 -97 25 -34
75 -97 111 -140 196 -232 258 -272 337 -218 21 14 47 28 59 32 12 4 33 14 47
24 14 9 43 20 65 24 22 4 50 17 61 27 l22 20 22 -36 c27 -44 97 -98 156 -121
60 -23 124 -6 160 42 75 98 97 266 87 676 -5 247 -4 280 11 312 15 32 15 39 2
64 -13 25 -15 111 -15 568 1 553 -11 811 -47 1051 -10 73 -14 164 -12 315 3
246 -6 309 -52 353 -22 21 -35 26 -56 22 -20 -3 -38 3 -67 24 -50 36 -133 41
-184 9z m176 -95 c9 -9 17 -50 22 -112 13 -150 38 -1466 38 -1933 0 -228 0
-426 1 -440 6 -105 10 -471 5 -498 -3 -17 -15 -40 -26 -51 -25 -23 -106 -36
-125 -20 -11 9 -18 8 -29 -1 -24 -20 -42 4 -50 68 -3 31 -13 67 -21 79 l-14
23 -48 -30 c-26 -16 -76 -58 -112 -94 -66 -68 -84 -77 -94 -51 -8 23 -34 18
-48 -10 -13 -24 -15 -24 -36 -9 -12 8 -22 21 -22 28 0 15 -34 48 -46 44 -5 -1
-61 24 -125 56 -112 57 -117 61 -145 113 -33 64 -43 72 -59 50 -7 -10 -16 -17
-22 -17 -12 0 -90 158 -120 244 -31 90 -57 200 -84 351 -30 170 -38 563 -15
721 49 336 169 553 356 643 63 30 88 37 157 39 71 4 88 1 142 -23 68 -31 151
-111 219 -211 22 -34 49 -64 58 -68 28 -11 46 14 40 53 -24 136 -41 694 -27
847 15 162 20 183 48 201 50 33 152 37 182 8z"/>
<path d="M13333 16777 c-5 -7 -23 -19 -41 -27 -62 -24 -154 -127 -199 -220
-62 -128 -66 -154 -66 -350 0 -297 55 -571 149 -750 54 -103 84 -130 185 -163
121 -40 124 -39 275 43 59 32 184 156 217 216 6 11 7 115 3 273 -14 544 -52
715 -191 857 -75 76 -161 119 -257 127 -49 5 -70 3 -75 -6z m213 -254 c21 -27
23 -27 42 -10 19 17 21 17 53 -2 19 -12 42 -21 52 -21 23 0 32 -25 61 -182 33
-170 46 -323 46 -522 0 -156 -1 -160 -30 -222 -32 -69 -74 -108 -203 -188 -91
-57 -134 -64 -207 -34 -66 28 -74 42 -94 173 -22 146 -46 282 -59 345 -7 30
-12 129 -12 220 0 168 5 198 51 307 17 42 79 110 117 130 28 14 94 29 142 32
10 0 29 -11 41 -26z"/>
<path d="M10205 18017 c-79 -12 -197 -13 -298 -2 -76 8 -141 -11 -150 -45 -2
-10 -1 -283 4 -606 5 -324 13 -951 19 -1394 6 -443 15 -854 20 -915 5 -60 7
-126 4 -146 -7 -40 10 -80 58 -142 40 -50 165 -109 281 -131 84 -16 317 -20
317 -6 0 3 44 14 98 24 125 24 228 74 319 158 176 162 199 207 285 542 32 127
63 246 68 265 28 107 -60 431 -139 510 -21 21 -66 96 -111 184 l-75 149 27 21
c58 47 84 195 75 431 -3 89 -13 204 -21 257 -19 120 -67 272 -103 324 -15 22
-53 92 -85 156 -65 133 -134 217 -209 255 -27 13 -64 37 -82 54 -19 17 -50 36
-68 44 -49 20 -153 26 -234 13z m-57 -79 c144 3 198 0 248 -13 219 -55 364
-248 450 -600 26 -106 34 -270 15 -330 -29 -96 -125 -292 -159 -323 -21 -20
-24 -30 -19 -68 4 -39 14 -54 74 -117 204 -211 294 -418 297 -677 1 -138 -14
-222 -66 -370 -29 -81 -93 -219 -107 -230 -4 -3 -28 -49 -55 -103 -54 -109
-95 -152 -167 -174 -70 -21 -356 -38 -397 -23 -26 9 -36 9 -48 -1 -18 -15
-194 -5 -223 13 -16 9 -25 9 -43 0 -13 -7 -34 -11 -48 -8 -14 2 -28 5 -31 5
-16 2 -23 48 -37 231 -10 145 -15 526 -20 1490 -4 712 -5 1299 -3 1304 2 5 36
5 80 0 42 -5 158 -7 259 -6z"/>
<path d="M10190 17594 c-8 -3 -40 -13 -70 -22 -30 -9 -58 -21 -62 -27 -4 -5
-8 -157 -8 -337 0 -310 1 -330 21 -385 27 -73 91 -137 151 -154 162 -43 329
79 403 296 18 55 31 350 15 360 -5 3 -18 33 -29 68 -24 71 -38 89 -102 140
-70 56 -106 67 -211 66 -51 0 -100 -3 -108 -5z m273 -246 c60 -15 100 -41 120
-79 16 -29 18 -49 13 -134 -3 -55 -17 -145 -30 -200 -23 -94 -28 -103 -70
-142 -25 -22 -67 -48 -93 -57 -48 -17 -130 -21 -149 -8 -6 4 -14 45 -18 92 -8
116 -7 436 2 485 7 36 11 40 52 51 46 12 106 9 173 -8z"/>
<path d="M10145 16423 c-33 -15 -63 -31 -66 -36 -6 -8 -22 -772 -19 -922 1
-76 17 -172 33 -192 5 -7 23 -13 40 -13 16 0 35 -7 42 -17 11 -15 15 -15 46
-1 22 10 80 18 164 22 132 7 270 34 311 61 12 8 28 31 35 52 6 21 24 66 40
100 58 127 64 162 64 368 0 286 -27 379 -137 466 -117 92 -251 139 -398 139
-81 0 -104 -4 -155 -27z m393 -190 c21 -9 53 -27 72 -38 71 -44 131 -75 144
-75 30 0 58 -219 44 -351 -16 -166 -102 -403 -150 -413 -12 -3 -93 -10 -178
-16 -85 -6 -173 -13 -196 -16 l-41 -6 -1 334 c-1 183 -3 366 -4 405 -3 69 -2
74 27 102 35 35 165 90 213 90 19 1 50 -7 70 -16z"/>
<path d="M4660 17916 c-25 -6 -55 -17 -67 -23 -31 -19 -60 -87 -77 -185 -8
-48 -30 -141 -49 -205 -60 -203 -110 -462 -162 -823 -63 -443 -131 -773 -179
-869 -37 -73 -90 -220 -150 -419 -100 -330 -124 -499 -80 -559 11 -15 26 -50
33 -78 33 -135 114 -235 189 -235 127 0 194 117 287 495 64 262 99 385 125
435 17 33 23 36 87 47 50 9 104 9 203 2 74 -6 147 -8 161 -5 25 5 27 2 68
-132 23 -75 68 -214 100 -309 41 -122 55 -177 48 -188 -5 -9 -6 -31 -3 -50 17
-91 165 -209 303 -241 95 -22 124 1 138 111 15 119 -43 444 -145 815 -28 102
-51 205 -51 230 0 25 -6 54 -13 65 -14 22 -57 189 -60 233 -1 15 -10 52 -19
82 -10 30 -33 123 -53 205 -19 83 -68 285 -108 450 -41 165 -90 379 -111 475
-41 196 -85 345 -121 406 -13 23 -28 63 -34 89 -13 57 -64 163 -88 181 -21 16
-110 16 -172 0z m170 -60 c5 -14 6 -41 3 -61 -5 -28 -1 -41 16 -59 23 -24 35
-73 80 -311 11 -60 27 -157 36 -215 9 -58 32 -190 52 -295 20 -104 39 -212 44
-240 4 -27 19 -93 33 -145 14 -52 26 -107 26 -123 0 -15 4 -35 9 -45 14 -25
98 -304 121 -402 21 -88 64 -373 75 -495 9 -98 26 -167 84 -345 50 -157 75
-280 52 -266 -6 4 -21 0 -33 -8 -13 -9 -43 -16 -70 -16 -42 0 -50 4 -73 35
-40 51 -77 156 -161 448 -41 144 -89 292 -105 328 -43 94 -78 112 -219 117
-104 4 -322 -18 -373 -37 -28 -11 -29 -12 -56 -136 -20 -87 -60 -211 -136
-420 -20 -55 -50 -145 -65 -200 -23 -76 -36 -105 -56 -122 -24 -19 -31 -20
-53 -9 -14 7 -38 16 -52 19 -15 4 -37 15 -49 25 -37 30 -30 91 44 367 90 336
121 433 168 534 49 106 71 188 93 356 19 146 102 683 140 906 14 80 45 230 69
335 24 104 52 229 61 278 30 165 60 205 149 207 28 0 60 4 71 9 38 16 65 11
75 -14z"/>
<path d="M4690 17355 c-5 -14 -10 -35 -10 -45 0 -51 -83 -444 -150 -710 -63
-252 -80 -328 -92 -422 -19 -145 -7 -153 237 -164 202 -9 246 -7 268 15 46 45
47 262 3 556 -32 209 -129 687 -150 737 -18 42 -19 43 -63 53 -29 6 -34 4 -43
-20z m184 -645 c20 -91 41 -199 46 -240 11 -86 12 -283 2 -350 l-7 -45 -60 -8
c-33 -5 -97 -6 -142 -2 l-83 7 0 55 c0 75 41 274 85 408 41 128 79 251 95 314
6 24 15 40 19 35 5 -5 25 -83 45 -174z"/>
<path d="M18975 17385 c-156 -48 -289 -145 -415 -302 -94 -117 -119 -168 -131
-270 -5 -48 -15 -100 -20 -115 -12 -30 2 -68 26 -68 7 0 27 -24 44 -53 39 -69
105 -143 144 -163 19 -10 43 -14 64 -11 56 10 157 62 172 91 8 14 18 26 22 26
4 0 27 20 51 44 l44 43 94 -13 c52 -7 127 -20 165 -29 39 -9 93 -20 120 -25
44 -9 75 -30 75 -51 0 -19 -123 -86 -195 -107 -22 -6 -96 -23 -165 -37 -393
-80 -519 -145 -600 -310 -61 -123 -95 -411 -57 -485 10 -19 36 -111 58 -205
47 -204 68 -260 129 -339 26 -34 61 -89 79 -123 54 -100 65 -107 184 -112 126
-4 294 23 392 64 17 6 46 18 65 25 42 16 112 63 140 92 23 26 22 27 43 -43 14
-46 105 -203 147 -254 17 -21 54 -19 74 4 41 46 77 173 101 361 30 229 75 701
77 795 1 100 5 66 28 -263 12 -161 32 -360 45 -443 14 -82 25 -162 25 -177 0
-36 48 -112 91 -145 19 -14 60 -33 92 -43 80 -25 104 -15 139 56 59 122 85
358 98 898 11 446 23 636 43 702 43 141 156 231 295 234 37 1 47 -3 64 -26 23
-32 43 -36 57 -10 9 15 12 15 21 2 19 -29 39 -147 49 -285 10 -148 -1 -608
-18 -790 -12 -116 -13 -304 -2 -390 4 -35 3 -70 -2 -86 -9 -22 -2 -42 48 -140
71 -139 89 -164 132 -184 119 -57 222 119 278 471 27 172 42 443 33 614 -6
109 -5 166 3 191 9 30 8 41 -6 69 -13 25 -16 46 -11 82 5 39 3 56 -12 81 -20
33 -52 202 -57 297 -2 44 -17 89 -69 206 -90 202 -150 301 -204 337 -23 16
-52 46 -63 69 -11 22 -40 59 -63 83 -35 35 -55 45 -102 55 -111 23 -244 -3
-385 -76 l-72 -38 -16 25 c-8 13 -43 52 -77 87 -61 62 -62 63 -105 56 -83 -13
-123 -53 -185 -188 -72 -157 -91 -318 -95 -781 -1 -157 -3 -185 -10 -131 -13
114 -39 214 -75 289 -19 39 -34 78 -34 87 -1 21 -25 50 -42 50 -9 0 -20 17
-27 43 -7 23 -33 76 -57 118 -24 42 -63 119 -85 170 -99 229 -178 327 -314
388 -45 21 -219 24 -280 6z m230 -86 c149 -39 213 -114 384 -456 63 -125 84
-179 96 -240 22 -118 36 -377 37 -678 0 -148 2 -386 5 -529 2 -176 0 -262 -7
-271 -6 -7 -10 -41 -8 -77 3 -60 2 -63 -19 -60 -26 4 -47 -29 -38 -58 5 -16 2
-20 -19 -20 -14 0 -29 -8 -35 -17 -8 -16 -11 -14 -21 12 -7 17 -19 59 -28 94
-11 44 -21 65 -33 68 -10 3 -31 33 -47 67 -17 37 -42 72 -60 85 l-31 22 -40
-44 c-24 -26 -68 -57 -108 -76 -38 -18 -91 -44 -118 -58 -36 -17 -58 -23 -77
-18 -24 6 -29 3 -38 -19 -5 -14 -13 -26 -17 -26 -5 0 -39 -9 -78 -20 -70 -19
-70 -19 -87 0 -20 24 -44 26 -56 4 -17 -30 -46 -11 -75 49 -30 65 -49 77 -77
52 -18 -16 -19 -15 -35 15 -30 58 -44 109 -65 235 -11 68 -31 154 -46 192 -23
61 -25 78 -21 168 9 170 61 310 152 400 78 79 185 122 358 145 165 22 305 55
387 92 57 26 147 94 155 118 7 23 -55 176 -94 234 -42 60 -108 116 -178 150
-76 38 -109 46 -226 56 -142 11 -160 1 -223 -128 -24 -51 -39 -72 -49 -68 -8
3 -17 1 -20 -4 -10 -16 -57 -11 -70 7 -9 13 -30 18 -71 20 -31 1 -62 7 -67 12
-14 14 15 117 54 196 79 160 238 300 409 359 75 26 180 32 245 15z m996 -86
c9 -10 12 -65 11 -181 -1 -92 3 -173 7 -181 5 -7 17 -11 27 -9 13 2 23 20 35
63 20 76 39 113 76 146 30 29 124 79 146 79 8 0 40 9 73 21 149 51 195 54 280
19 58 -25 86 -63 174 -241 87 -172 125 -276 117 -317 -5 -26 7 -61 25 -73 20
-13 57 -434 40 -451 -16 -16 -15 -44 3 -72 13 -20 15 -75 11 -402 -3 -208 -10
-437 -16 -509 -10 -121 -13 -131 -37 -152 -29 -23 -81 -37 -106 -27 -9 3 -30
31 -47 62 -50 91 -55 176 -35 572 29 551 11 924 -49 1055 -53 115 -186 215
-285 215 -157 0 -298 -149 -366 -386 -56 -199 -65 -312 -47 -624 4 -74 7 -234
7 -355 0 -248 -16 -401 -47 -440 -22 -28 -127 -80 -138 -68 -22 23 -54 234
-70 463 -16 238 -32 1321 -20 1425 11 95 32 181 57 228 15 31 102 148 117 158
12 9 43 -1 57 -18z"/>
<path d="M19412 16089 c-13 -5 -83 -12 -155 -15 -218 -10 -294 -41 -414 -168
-136 -144 -187 -264 -163 -382 16 -76 78 -143 165 -178 154 -61 380 -15 504
104 72 69 100 124 111 216 5 44 16 113 26 154 11 52 15 99 11 156 -7 117 -23
138 -85 113z m12 -291 c-12 -102 -34 -189 -59 -238 -31 -60 -116 -131 -195
-161 -76 -29 -193 -44 -255 -33 l-50 10 3 54 c3 51 42 201 60 226 4 6 17 14
29 18 14 4 26 18 29 34 20 84 161 137 372 141 l73 1 -7 -52z"/>
<path d="M15664 17310 c-25 -10 -66 -58 -98 -113 -102 -183 -130 -241 -183
-377 -76 -194 -223 -626 -253 -745 -13 -49 -27 -94 -31 -99 -7 -8 -29 53 -29
81 0 6 -30 114 -66 240 -36 125 -76 266 -89 313 -97 352 -221 563 -362 619
-44 18 -137 10 -194 -17 -50 -23 -99 -73 -99 -100 0 -31 37 -157 64 -222 81
-191 113 -284 161 -478 30 -117 59 -258 65 -312 18 -167 22 -178 209 -577 111
-239 115 -255 116 -413 0 -165 -21 -248 -97 -390 -84 -156 -127 -219 -155
-226 -13 -4 -61 3 -106 15 -192 49 -203 39 -217 -177 -9 -151 -10 -149 51
-188 23 -14 62 -60 103 -123 75 -112 109 -142 169 -148 43 -4 48 -2 186 84 20
13 61 36 92 53 83 46 209 179 209 221 0 13 12 57 25 98 14 41 59 194 100 340
42 146 94 327 115 401 140 482 190 687 230 939 12 74 28 160 36 190 27 105 96
276 195 481 93 195 129 292 129 351 0 14 -7 48 -15 75 -8 27 -19 77 -24 112
-6 35 -15 70 -22 78 -14 17 -56 19 -62 2 -3 -10 -13 -9 -41 5 -39 18 -78 21
-112 7z m118 -122 c-1 -12 -23 -65 -48 -117 -55 -116 -94 -229 -94 -276 0 -18
-4 -37 -10 -40 -5 -3 -10 -13 -10 -21 0 -13 -65 -192 -93 -254 -16 -36 -36
-124 -48 -205 -5 -38 -26 -115 -45 -170 -100 -280 -155 -453 -183 -579 -18
-76 -39 -148 -47 -161 -8 -12 -12 -30 -8 -39 3 -9 1 -44 -5 -79 -44 -239 -53
-281 -66 -308 -9 -16 -13 -34 -10 -40 8 -12 -75 -275 -114 -362 -31 -68 -87
-161 -113 -187 -8 -8 -19 -22 -24 -31 -5 -10 -31 -40 -57 -68 -43 -46 -50 -50
-68 -38 -17 10 -22 9 -35 -7 -8 -11 -14 -31 -14 -44 0 -17 -4 -22 -14 -19 -8
3 -20 0 -26 -8 -14 -16 -132 -19 -172 -4 -15 6 -38 28 -52 49 -14 21 -42 51
-62 66 l-36 28 7 75 c8 83 28 129 61 137 11 3 47 -4 80 -14 113 -38 134 -42
162 -29 44 20 70 47 118 124 80 128 139 299 165 473 22 150 2 218 -161 553
-105 217 -137 309 -151 436 -28 246 -111 582 -181 731 -59 126 -97 234 -104
296 l-7 54 66 30 c82 37 96 37 130 3 56 -60 109 -223 235 -728 119 -476 194
-710 275 -860 32 -60 62 -80 78 -53 5 7 8 53 8 103 -2 130 46 338 178 775 115
383 250 670 381 812 l55 58 31 -20 c21 -14 30 -26 28 -42z"/>
<path d="M8486 17255 c-15 -8 -38 -27 -50 -41 -27 -33 -127 -208 -168 -294
-63 -132 -210 -545 -298 -835 -28 -93 -53 -171 -55 -173 -2 -2 -6 12 -10 30
-33 165 -244 873 -276 928 -4 8 -25 46 -46 85 -21 38 -67 100 -102 137 -73 78
-130 103 -211 92 -72 -10 -152 -54 -173 -96 -16 -33 -16 -40 -1 -104 8 -38 39
-125 69 -194 29 -69 66 -168 83 -220 50 -157 113 -429 123 -530 14 -148 35
-208 166 -480 138 -286 163 -362 164 -500 0 -105 -20 -214 -53 -293 -38 -91
-158 -295 -186 -317 -29 -23 -29 -23 -139 9 -100 29 -146 28 -171 -4 -21 -26
-27 -64 -37 -227 -7 -96 -9 -92 69 -151 21 -16 57 -60 81 -98 119 -185 175
-203 319 -105 34 23 92 57 129 76 63 31 83 49 185 163 14 16 29 45 33 65 4 20
29 107 54 192 49 163 58 195 187 645 131 458 187 688 219 890 16 105 37 213
45 240 49 155 97 272 189 465 143 297 153 338 116 461 -11 35 -22 87 -26 114
-4 28 -12 56 -17 63 -14 16 -43 15 -57 -2 -11 -12 -18 -12 -54 5 -51 23 -64
23 -101 4z m93 -82 c39 -22 38 -34 -29 -168 -27 -55 -53 -120 -59 -144 -5 -24
-14 -48 -20 -54 -6 -6 -11 -26 -11 -44 0 -38 -22 -107 -84 -268 -40 -102 -59
-175 -85 -317 -5 -32 -41 -145 -80 -250 -67 -188 -138 -425 -162 -548 -6 -33
-16 -63 -20 -66 -5 -3 -9 -25 -9 -49 0 -25 -4 -64 -9 -87 -6 -24 -18 -88 -27
-143 -9 -55 -24 -115 -33 -134 -8 -19 -14 -43 -14 -54 3 -27 -62 -235 -102
-334 -39 -93 -88 -174 -154 -253 -90 -107 -104 -121 -115 -110 -28 28 -56 4
-56 -46 0 -15 -4 -23 -11 -19 -5 4 -18 0 -27 -8 -22 -20 -137 -20 -174 -1 -14
7 -36 28 -49 46 -12 18 -38 49 -59 68 l-37 35 6 75 c11 134 42 153 176 105 82
-29 108 -31 143 -9 59 35 155 193 202 333 35 104 70 275 70 340 0 88 -39 198
-147 421 -130 268 -161 358 -179 529 -21 208 -111 551 -185 710 -66 139 -89
212 -89 278 l0 54 55 25 c79 37 112 31 151 -27 42 -63 102 -255 190 -612 134
-540 223 -822 305 -965 50 -88 79 -64 78 62 -2 107 35 282 127 602 152 532
269 800 433 992 25 28 48 52 52 52 4 0 21 -8 38 -17z"/>
<path d="M11726 17219 c-13 -11 -27 -19 -31 -19 -18 0 -138 -96 -176 -141 -61
-72 -83 -106 -133 -206 -121 -241 -174 -505 -163 -812 7 -192 24 -298 71 -442
44 -133 175 -477 209 -549 15 -30 27 -61 27 -69 0 -36 72 -142 148 -218 111
-111 236 -190 337 -213 70 -16 91 -6 146 70 31 42 91 103 159 159 141 117 187
178 260 350 116 268 183 621 184 961 0 217 -10 298 -53 421 -32 94 -126 321
-160 387 -33 64 -96 128 -151 153 -26 12 -54 33 -61 46 -15 27 -63 67 -121
101 -50 28 -164 42 -331 41 -118 -1 -141 -4 -161 -20z m300 -60 c43 -6 96 -18
118 -26 108 -42 204 -140 266 -268 31 -66 106 -316 139 -466 76 -339 24 -745
-140 -1096 -26 -57 -52 -103 -56 -103 -5 0 -14 5 -21 12 -8 8 -15 8 -28 -3
-12 -10 -15 -24 -11 -58 4 -39 1 -50 -26 -83 -17 -21 -38 -38 -47 -38 -9 0
-24 -16 -33 -35 -20 -43 -41 -53 -63 -30 -15 15 -18 15 -35 -1 -11 -9 -19 -27
-19 -39 0 -31 -14 -39 -96 -58 -116 -27 -144 -22 -144 27 0 17 -4 37 -9 44
-14 23 -45 9 -55 -26 -11 -39 -22 -40 -72 -3 -72 54 -95 79 -105 115 -7 25
-17 38 -33 42 -56 14 -151 271 -205 550 -103 545 -91 810 50 1104 109 227 245
371 392 414 131 38 136 39 233 25z m655 -895 c24 -44 33 -72 37 -124 8 -116
-15 -157 -45 -80 -9 22 -25 42 -36 46 -17 5 -19 12 -13 51 3 25 6 75 6 110 0
37 4 62 9 58 6 -3 24 -31 42 -61z m-316 -1266 l35 -73 -30 -27 c-39 -36 -54
-35 -83 5 -41 53 -42 86 -4 129 17 20 35 37 40 38 4 0 23 -33 42 -72z"/>
<path d="M11882 16858 c-5 -7 -12 -24 -14 -38 -2 -20 -18 -32 -77 -62 -41 -20
-87 -48 -102 -63 -78 -73 -136 -303 -159 -626 -13 -174 10 -379 66 -594 14
-55 30 -123 34 -152 10 -62 16 -73 39 -73 10 0 26 -9 37 -21 79 -87 202 -58
320 76 80 90 279 369 309 432 74 155 49 486 -56 738 -65 157 -200 317 -313
370 -60 29 -70 30 -84 13z m246 -275 c141 -180 221 -412 208 -610 -7 -112 -25
-169 -94 -294 -114 -205 -265 -378 -366 -417 l-58 -23 -42 25 c-85 50 -80 20
-80 439 -1 354 0 376 21 452 38 136 104 252 200 355 74 79 89 90 118 90 19 0
37 5 40 10 11 17 22 11 53 -27z"/>
<path d="M5852 17223 c-72 -9 -155 -137 -207 -318 -39 -135 -48 -302 -42 -825
7 -579 35 -935 103 -1296 6 -33 80 -110 127 -132 53 -25 108 -36 136 -27 77
24 141 374 141 769 0 89 5 262 10 386 6 124 11 256 11 294 0 38 6 103 14 144
36 187 126 282 292 307 39 6 46 4 74 -24 33 -34 56 -39 65 -16 4 8 10 13 14
10 14 -9 38 -104 49 -195 16 -125 13 -577 -4 -780 -10 -108 -15 -261 -13 -400
l2 -225 52 -106 c62 -124 92 -164 140 -179 73 -24 139 35 185 163 16 45 34 91
38 102 14 31 39 175 57 325 10 89 16 231 18 420 0 157 4 290 8 296 4 6 1 21
-6 35 -21 41 -25 68 -13 99 10 25 8 34 -10 58 -12 16 -24 51 -28 78 -4 27 -13
84 -21 128 -8 43 -14 95 -14 116 0 64 -141 375 -216 477 -22 29 -49 56 -61 60
-12 5 -46 44 -75 87 -72 107 -99 121 -233 120 -111 -1 -209 -28 -313 -87 l-55
-31 -16 25 c-27 44 -140 149 -158 147 -10 0 -33 -3 -51 -5z m46 -116 c9 -7 12
-57 12 -189 0 -150 2 -180 15 -184 24 -10 40 11 54 68 34 134 89 176 316 246
143 44 150 45 217 26 90 -25 118 -60 219 -265 92 -186 123 -273 113 -315 -5
-18 0 -34 15 -55 21 -28 41 -135 40 -219 0 -19 4 -75 8 -125 5 -54 4 -105 -2
-128 -7 -27 -6 -43 3 -57 24 -38 23 -605 -1 -905 -2 -22 -4 -61 -5 -87 -2 -57
-23 -82 -81 -98 -56 -15 -74 -3 -112 72 -28 55 -31 71 -36 187 -3 69 0 207 6
306 37 590 19 992 -52 1132 -32 63 -113 145 -174 174 -67 34 -161 33 -227 0
-53 -28 -133 -109 -173 -178 -40 -70 -90 -223 -103 -321 -6 -48 -18 -110 -26
-138 -11 -39 -12 -59 -4 -80 6 -16 11 -89 11 -164 -1 -74 4 -193 10 -265 12
-154 5 -392 -17 -525 -14 -85 -19 -98 -47 -122 -18 -16 -43 -31 -57 -34 -14
-4 -31 -11 -37 -17 -25 -19 -40 13 -57 116 -39 244 -46 369 -57 1037 -12 704
-9 783 31 906 11 33 30 74 43 90 92 127 97 132 120 127 12 -3 28 -10 35 -16z"/>
<path d="M12826 14987 c-11 -43 -6 -127 12 -174 15 -43 17 -91 16 -458 -1
-341 -4 -420 -17 -465 -9 -30 -20 -86 -26 -125 -26 -181 -37 -222 -133 -505
-20 -60 -101 -230 -129 -270 -9 -14 -42 -63 -72 -110 -134 -208 -315 -373
-545 -495 -31 -17 -91 -53 -132 -80 -97 -63 -175 -91 -280 -100 -47 -3 -132
-13 -189 -21 -62 -8 -188 -14 -307 -14 -143 0 -226 -5 -285 -16 -77 -15 -92
-15 -189 0 -58 9 -143 25 -190 36 -109 23 -188 39 -270 51 -36 5 -87 16 -115
23 -27 8 -70 19 -95 26 -202 50 -259 66 -293 79 -16 6 -39 11 -52 11 -14 0
-39 6 -57 14 -40 17 -120 44 -168 56 -46 11 -127 39 -167 56 -17 8 -36 14 -42
14 -19 0 -136 41 -141 50 -7 11 -100 19 -100 9 0 -5 6 -9 14 -9 7 0 19 -6 25
-14 7 -8 26 -18 42 -21 16 -4 29 -10 29 -15 0 -5 29 -22 64 -39 35 -17 67 -35
71 -41 3 -5 17 -10 29 -10 13 0 29 -7 36 -15 7 -8 18 -15 26 -15 7 0 52 -18
101 -41 48 -22 97 -44 108 -49 11 -4 40 -17 65 -28 99 -43 226 -92 241 -92 8
0 24 -7 35 -15 10 -8 28 -15 39 -15 11 0 29 -6 40 -14 11 -7 38 -16 60 -20 22
-4 45 -11 50 -16 10 -8 87 -31 175 -52 25 -5 50 -14 56 -19 6 -5 31 -13 55
-18 24 -5 58 -14 74 -20 47 -17 132 -39 235 -61 52 -11 115 -26 140 -32 81
-19 183 -38 282 -53 53 -7 105 -18 115 -23 10 -5 45 -12 78 -15 34 -2 84 -12
113 -21 131 -40 151 -46 163 -46 8 0 31 -9 52 -20 20 -11 42 -20 48 -20 21 0
168 -78 252 -133 83 -56 225 -195 282 -278 74 -109 133 -258 143 -367 9 -97
-8 -263 -32 -309 -9 -18 -16 -37 -16 -43 0 -18 -116 -165 -147 -186 -41 -27
-66 -42 -83 -49 -8 -4 -28 -14 -45 -23 -43 -24 -318 -24 -390 0 -27 9 -72 19
-100 22 -27 4 -68 12 -90 20 -22 8 -76 21 -120 31 -85 18 -188 49 -243 71 -18
8 -43 14 -55 14 -12 0 -34 6 -48 14 -14 7 -42 16 -62 20 -20 4 -49 13 -64 21
-15 8 -36 15 -46 15 -10 0 -28 5 -40 11 -11 7 -42 18 -67 25 -47 13 -200 67
-235 83 -52 24 -104 16 -77 -11 6 -6 12 -19 12 -27 0 -8 7 -22 16 -32 31 -35
188 -340 233 -454 12 -33 29 -74 37 -92 8 -17 14 -36 14 -41 0 -6 6 -23 14
-39 15 -30 29 -69 52 -145 8 -27 21 -69 29 -95 8 -27 19 -66 24 -88 5 -22 15
-60 21 -85 6 -25 15 -70 19 -101 5 -31 13 -71 20 -90 6 -19 15 -77 20 -129 5
-52 15 -126 22 -165 14 -84 6 -549 -11 -610 -6 -22 -15 -81 -19 -131 -5 -49
-16 -112 -24 -140 -27 -83 -47 -196 -46 -249 1 -27 3 -42 6 -33 2 9 19 33 36
52 18 19 42 54 54 78 45 90 93 196 93 206 0 6 7 23 15 39 24 46 42 94 65 173
11 41 28 96 36 121 8 26 14 62 14 81 0 19 7 57 15 84 21 69 33 583 15 669 -7
33 -16 85 -20 116 -4 30 -12 65 -19 77 -6 11 -11 36 -11 54 0 19 -7 43 -15 54
-8 10 -15 27 -15 37 0 26 -65 187 -131 324 -53 110 -70 163 -53 163 3 0 45
-21 92 -47 360 -195 550 -285 752 -358 19 -7 53 -19 75 -28 44 -16 117 -38
215 -64 44 -12 121 -19 237 -23 94 -3 173 -7 176 -10 14 -15 47 -87 47 -102 0
-9 4 -19 9 -23 5 -3 13 -20 17 -38 3 -17 12 -45 20 -62 7 -16 29 -70 49 -120
41 -101 153 -318 197 -382 15 -23 28 -46 28 -52 0 -5 6 -14 13 -18 7 -4 35
-39 62 -78 48 -68 107 -133 362 -395 67 -69 135 -141 152 -160 16 -19 44 -51
61 -70 18 -19 44 -53 59 -75 14 -22 69 -97 121 -166 52 -70 102 -137 110 -149
8 -12 25 -34 38 -48 13 -15 37 -47 54 -72 18 -25 34 -47 38 -50 3 -3 32 -39
63 -80 78 -101 106 -137 142 -179 48 -56 157 -192 190 -236 16 -22 46 -58 66
-80 20 -22 76 -87 125 -145 114 -136 219 -255 313 -356 42 -44 101 -110 131
-145 79 -92 182 -194 203 -202 19 -7 23 12 8 41 -5 9 -41 82 -80 162 -40 80
-96 190 -126 245 -29 55 -67 127 -84 160 -34 69 -85 161 -142 257 -21 36 -39
69 -39 71 0 7 -198 345 -231 395 -16 24 -29 45 -29 47 0 2 -13 23 -28 47 -16
24 -47 72 -70 108 -22 36 -45 70 -49 75 -8 10 -39 57 -58 86 -9 15 -28 40
-122 159 -66 83 -151 160 -218 195 -125 67 -135 73 -173 101 -52 40 -142 125
-142 135 0 5 -8 17 -17 27 -80 83 -205 269 -243 362 -6 14 -27 56 -47 95 -52
101 -101 217 -134 317 -16 48 -33 96 -38 105 -4 10 -16 43 -24 73 -9 30 -23
78 -32 105 -9 28 -20 66 -25 85 -14 57 -31 122 -45 175 -30 111 -45 176 -45
194 0 11 -7 41 -15 66 -9 25 -20 73 -25 107 -23 162 -40 266 -49 303 -6 22
-11 62 -11 89 0 26 -6 74 -14 105 -25 99 -41 449 -41 871 0 429 0 424 47 514
15 28 71 187 124 351 25 77 50 149 54 160 5 11 12 36 15 55 4 19 13 55 20 80
24 77 44 163 76 325 5 28 16 82 24 120 62 291 91 811 61 1100 -25 244 -63 456
-85 478 -6 6 -11 29 -11 52 0 23 -5 46 -11 52 -6 6 -15 29 -20 52 -5 23 -18
50 -28 60 -19 19 -19 19 -25 -2z"/>
<path d="M4829 13752 c-14 -9 -39 -32 -54 -51 -30 -35 -31 -40 -28 -226 0 -27
1 -138 1 -245 0 -107 0 -462 1 -788 l1 -594 50 -48 c64 -61 90 -67 129 -26
l30 31 6 465 c2 256 5 499 5 540 0 41 4 107 10 147 9 60 9 77 -4 102 -14 27
-14 38 0 111 9 48 12 90 7 103 -4 12 -8 85 -9 162 0 77 -4 175 -8 217 -8 74
-10 78 -43 98 -41 24 -59 24 -94 2z"/>
<path d="M11295 13431 c-69 -16 -161 -73 -218 -137 -20 -23 -37 -45 -37 -49 0
-5 -6 -16 -14 -24 -55 -61 -74 -256 -36 -365 26 -73 42 -99 99 -159 99 -105
223 -136 424 -107 246 36 391 264 332 519 -30 125 -104 213 -241 286 -73 39
-219 56 -309 36z"/>
<path d="M4153 12563 c-10 -4 -13 -154 -13 -704 l0 -700 35 -34 c28 -29 42
-35 76 -35 35 0 48 6 75 35 l34 34 0 669 0 668 -34 37 c-32 35 -36 37 -97 36
-35 0 -70 -3 -76 -6z"/>
<path d="M5432 12367 l-32 -33 0 -442 0 -442 28 -6 c15 -4 38 -15 52 -25 l26
-17 54 51 55 52 -3 400 -3 400 -52 47 c-29 26 -61 48 -73 48 -11 0 -34 -15
-52 -33z"/>
<path d="M4532 10725 c-12 -14 -32 -25 -44 -25 -36 -1 -128 -95 -128 -130 0
-19 -7 -33 -20 -40 -12 -6 -25 -21 -31 -33 -5 -12 -16 -33 -24 -47 -8 -14 -15
-37 -15 -52 0 -17 -8 -31 -20 -38 -15 -8 -20 -21 -20 -54 0 -27 -7 -52 -19
-67 -12 -15 -20 -46 -23 -84 -3 -42 -11 -70 -26 -91 -23 -30 -23 -31 -20 -356
3 -323 3 -327 26 -350 18 -20 22 -35 22 -95 0 -57 4 -73 20 -88 14 -13 20 -31
20 -61 0 -33 5 -46 22 -58 13 -10 23 -28 24 -46 1 -17 9 -39 17 -48 9 -9 19
-29 22 -45 4 -15 13 -31 20 -35 17 -9 61 -73 69 -100 8 -23 75 -72 99 -72 9 0
22 -9 29 -20 12 -19 24 -20 346 -20 l334 0 91 91 c94 95 130 140 142 180 4 13
16 38 26 55 11 17 19 40 19 51 0 11 9 32 20 46 14 17 20 40 20 73 0 36 6 54
22 72 20 21 23 36 26 135 3 90 7 115 20 125 15 11 17 40 20 211 3 195 3 200
-19 220 -20 18 -23 33 -27 130 -4 91 -8 113 -23 127 -14 13 -19 31 -19 69 0
39 -5 56 -20 70 -14 13 -20 31 -20 61 0 35 -5 47 -25 60 -16 11 -25 26 -25 43
0 20 -27 53 -119 144 l-118 117 -325 0 -324 0 -22 -25z m165 -211 c3 -9 -3
-21 -16 -30 -13 -10 -21 -26 -21 -45 0 -17 -9 -42 -20 -56 -12 -16 -20 -41
-20 -64 0 -27 -5 -41 -19 -48 -16 -9 -20 -25 -22 -94 -3 -67 -8 -88 -26 -111
-23 -28 -23 -33 -23 -322 l0 -294 -64 0 c-58 0 -67 3 -85 26 -39 49 -23 104
29 104 37 0 83 50 78 86 -3 28 -26 47 -95 79 -31 14 -33 19 -33 65 0 45 4 52
45 92 51 49 56 74 19 109 -24 22 -26 29 -22 99 2 60 8 81 26 104 12 16 22 41
22 56 0 15 9 35 20 45 11 10 20 31 20 46 0 18 7 32 20 39 12 7 20 21 20 37 0
16 13 39 33 59 27 28 39 33 80 33 34 1 49 -3 54 -15z m476 -36 c56 -58 97
-127 97 -162 0 -13 8 -30 19 -40 11 -10 21 -37 24 -69 5 -36 12 -56 27 -66 18
-12 20 -24 20 -110 0 -79 4 -101 20 -126 18 -27 20 -47 20 -201 0 -156 -2
-174 -20 -197 -17 -21 -20 -40 -20 -122 0 -82 -3 -101 -20 -122 -11 -15 -20
-41 -20 -60 0 -23 -9 -46 -25 -65 -16 -18 -25 -42 -25 -62 0 -20 -8 -40 -20
-51 -11 -10 -20 -22 -20 -27 0 -10 -86 -95 -126 -124 -27 -19 -31 -19 -70 -5
-54 21 -100 61 -117 103 -8 19 -29 50 -46 70 -25 29 -31 44 -31 81 0 33 -5 49
-19 59 -13 10 -19 29 -23 74 -3 43 -11 69 -26 89 -22 27 -22 33 -22 360 0 317
1 333 20 358 15 19 20 40 20 84 0 51 4 63 25 81 19 17 25 32 25 64 0 23 7 48
15 57 38 40 65 80 65 96 0 10 15 33 33 51 30 32 36 34 100 34 l69 0 51 -52z
m-622 -1188 c23 -23 29 -35 24 -52 -17 -58 -90 -66 -142 -16 -58 56 -39 97 45
98 35 0 49 -6 73 -30z"/>
<path d="M3945 7705 c-5 -2 -71 -8 -145 -14 -75 -6 -198 -24 -275 -41 -77 -16
-153 -32 -170 -34 -16 -3 -52 -12 -79 -20 -27 -9 -61 -16 -76 -16 -15 0 -36
-10 -50 -25 -13 -14 -35 -25 -48 -25 -14 0 -34 -8 -44 -17 -13 -12 -42 -19
-89 -21 -55 -3 -72 -8 -80 -23 -6 -11 -21 -19 -37 -19 -37 0 -132 -97 -132
-134 0 -16 -9 -31 -25 -42 -25 -16 -25 -17 -25 -169 l0 -152 50 -51 c27 -28
50 -58 50 -67 0 -9 16 -23 35 -31 21 -8 40 -25 45 -40 23 -58 31 -509 31
-1709 0 -693 -3 -1317 -7 -1387 -6 -105 -4 -133 10 -167 9 -23 16 -67 16 -98
0 -42 5 -62 19 -77 10 -12 29 -41 43 -66 37 -70 119 -149 193 -184 17 -8 39
-24 49 -35 11 -12 31 -21 47 -21 18 0 32 -7 39 -20 8 -15 21 -20 49 -20 23 0
48 -8 64 -20 14 -11 38 -20 53 -20 15 0 38 -10 51 -22 18 -17 37 -22 91 -24
54 -3 70 -7 81 -24 11 -17 24 -20 86 -20 59 0 75 -4 90 -20 16 -18 31 -20 130
-20 97 0 116 -3 138 -20 24 -19 40 -20 259 -20 226 0 234 1 252 21 23 27 80
22 125 -12 27 -20 48 -24 139 -30 60 -3 112 -2 119 3 6 5 38 12 70 15 32 3 73
14 92 24 49 26 190 25 250 -2 59 -26 145 -25 189 1 27 17 50 20 146 20 103 0
115 2 127 20 12 17 26 21 79 21 49 1 76 8 107 25 28 16 57 24 91 24 36 0 54 5
67 20 13 15 31 20 65 20 37 0 51 5 68 25 13 15 33 25 48 25 14 0 37 9 51 20
14 11 34 20 44 20 10 0 23 9 29 20 7 12 21 20 37 20 27 0 99 65 241 215 11 12
21 41 25 69 3 32 12 55 23 63 17 12 20 34 24 201 l5 187 349 3 c249 2 353 -1
362 -9 9 -7 14 -33 14 -73 0 -54 4 -66 25 -86 14 -13 25 -34 25 -48 0 -38 143
-172 184 -172 12 0 27 -9 34 -20 10 -17 23 -20 85 -20 53 0 82 -5 110 -20 33
-18 56 -20 201 -20 142 0 170 3 207 20 32 14 66 20 124 20 68 0 82 3 92 19 12
18 32 19 496 23 467 3 486 4 507 23 17 16 41 21 119 25 63 3 104 10 115 19 9
8 40 18 68 22 28 5 58 15 68 24 10 9 35 18 56 22 22 3 44 12 51 20 7 9 33 19
58 24 25 5 53 15 61 24 9 8 27 18 42 21 15 4 48 24 74 45 26 22 57 39 70 39
15 0 37 17 62 45 26 30 47 45 63 45 32 0 393 359 393 391 0 13 21 45 50 75 28
30 58 71 67 91 8 21 24 44 34 51 11 8 19 25 19 42 0 19 7 33 20 40 13 7 20 21
20 39 0 16 10 37 25 51 16 15 25 34 25 54 0 17 9 45 20 61 11 17 20 43 20 58
0 16 9 40 20 54 16 20 20 41 20 93 0 53 4 73 20 93 19 24 21 41 22 249 3 446
0 512 -22 538 -16 18 -20 37 -20 95 0 59 -4 75 -20 90 -15 13 -20 31 -20 65 0
37 -5 51 -25 68 -15 14 -25 32 -25 50 0 15 -9 35 -20 45 -11 9 -20 28 -20 42
0 14 -8 29 -20 35 -13 7 -20 21 -20 40 0 20 -8 35 -25 46 -17 11 -25 26 -25
44 0 15 -9 35 -19 44 -11 10 -22 29 -25 42 -7 27 -11 32 -100 124 -34 36 -66
77 -69 92 -7 28 -147 178 -166 178 -6 0 -11 5 -11 10 0 6 -28 31 -62 56 -34
25 -68 54 -75 64 -7 10 -59 46 -115 81 -57 35 -135 84 -175 111 -59 39 -81 48
-130 53 -145 13 -168 18 -181 36 -11 16 -26 19 -86 19 -59 0 -76 4 -90 19 -16
17 -35 20 -166 23 -127 3 -151 6 -168 22 -19 17 -47 18 -369 22 -520 6 -706 5
-938 -2 -184 -6 -213 -9 -234 -25 -13 -11 -40 -19 -61 -19 -24 0 -43 -7 -55
-20 -10 -11 -28 -20 -40 -20 -12 0 -32 -11 -44 -24 -13 -14 -35 -26 -50 -28
-20 -2 -29 -11 -37 -37 -6 -19 -18 -39 -26 -45 -8 -6 -19 -22 -23 -36 -4 -13
-16 -36 -26 -50 -14 -20 -17 -42 -16 -114 2 -80 4 -90 25 -104 15 -10 22 -24
22 -46 0 -17 9 -44 20 -61 22 -34 26 -85 8 -103 -17 -17 -739 -17 -756 0 -13
13 -16 75 -6 102 4 9 18 16 33 16 22 0 38 14 78 63 28 35 54 79 58 97 4 19 16
46 27 61 29 39 23 172 -9 213 -13 16 -23 38 -23 50 0 24 -76 109 -152 170 -32
26 -61 40 -90 43 -25 4 -48 14 -56 25 -8 11 -25 18 -45 18 -18 0 -45 9 -62 20
-23 15 -47 20 -101 20 -59 0 -76 4 -100 23 -25 19 -42 22 -149 25 -95 3 -124
7 -139 20 -15 15 -55 18 -285 23 -213 5 -275 9 -310 22 -39 15 -120 17 -825
16 -429 0 -785 -2 -791 -4z m1791 -447 c16 -14 49 -17 219 -20 190 -3 202 -4
229 -25 24 -20 41 -23 111 -23 69 0 85 -3 100 -20 12 -14 33 -20 74 -22 64 -3
75 -19 42 -59 -18 -22 -28 -24 -119 -27 -84 -3 -103 -7 -118 -23 -15 -16 -31
-19 -113 -19 -78 0 -102 -4 -129 -20 -29 -18 -51 -20 -210 -21 -272 -1 -462
-13 -497 -33 -26 -14 -79 -16 -432 -16 -373 0 -406 1 -465 20 -45 14 -91 20
-162 20 -94 0 -102 2 -127 26 -35 33 -94 42 -514 74 -66 5 -162 10 -214 10
-74 0 -98 4 -113 17 -18 16 -24 42 -10 44 49 4 69 11 81 29 12 18 24 20 108
20 71 0 102 4 126 18 26 14 66 18 213 22 150 4 185 8 200 21 11 10 28 19 39
22 11 3 390 4 841 3 753 -1 823 -2 840 -18z m3314 -168 c35 -18 59 -20 212
-20 109 -1 201 -6 248 -15 41 -8 128 -24 192 -34 64 -11 126 -24 137 -30 11
-6 48 -11 82 -11 59 0 66 -3 110 -40 37 -31 56 -40 86 -40 32 0 45 -8 82 -45
25 -25 54 -45 64 -45 11 0 32 -11 49 -25 16 -14 38 -25 48 -25 26 0 377 -349
385 -383 4 -14 24 -45 46 -68 21 -23 39 -47 39 -52 0 -14 62 -107 71 -107 5 0
11 -22 15 -50 4 -29 14 -56 25 -66 11 -9 19 -29 19 -44 0 -15 9 -35 20 -45 15
-13 20 -31 20 -65 0 -31 9 -63 25 -94 22 -41 25 -60 25 -144 0 -59 7 -123 17
-163 15 -61 15 -69 0 -117 -12 -37 -17 -86 -17 -180 0 -124 -1 -129 -25 -152
-21 -20 -24 -32 -24 -82 1 -47 -3 -64 -20 -82 -12 -13 -21 -36 -21 -54 0 -21
-6 -35 -20 -42 -13 -7 -20 -21 -20 -40 0 -19 -7 -34 -20 -42 -12 -8 -20 -24
-20 -39 0 -14 -11 -36 -25 -49 -14 -13 -25 -35 -25 -48 0 -17 -14 -38 -42 -63
-40 -38 -57 -60 -78 -108 -18 -41 -240 -259 -269 -264 -15 -3 -44 -23 -66 -44
-41 -40 -59 -53 -113 -78 -18 -9 -35 -22 -39 -30 -3 -8 -17 -15 -32 -15 -16 0
-37 -10 -51 -25 -15 -16 -34 -25 -54 -25 -17 0 -44 -9 -61 -20 -16 -11 -44
-20 -61 -20 -17 0 -43 -9 -57 -20 -18 -14 -40 -20 -78 -20 -38 0 -64 -7 -95
-25 l-43 -25 -293 2 -293 3 -5 126 c-4 107 -8 130 -24 148 -12 14 -21 41 -24
75 -4 49 -2 56 22 77 16 14 26 33 26 49 0 15 9 37 20 50 18 21 20 37 20 174 0
140 -1 152 -20 164 -13 8 -20 23 -20 42 0 18 -8 34 -21 44 -20 14 -31 29 -60
84 -10 19 -9 26 8 45 11 12 23 42 26 65 3 24 15 54 26 66 20 21 21 34 21 195
0 170 0 174 -25 203 -14 16 -25 38 -25 49 0 10 -9 27 -20 36 -11 10 -20 27
-20 38 -1 11 -18 40 -40 65 -36 40 -38 46 -24 61 9 10 17 29 18 44 2 14 13 36
25 49 16 16 21 35 21 72 0 31 7 59 18 74 12 19 18 52 22 130 4 76 9 105 18
105 21 0 112 -97 112 -119 0 -12 21 -43 45 -70 25 -27 45 -58 45 -69 0 -11 18
-37 40 -58 22 -22 40 -48 40 -59 0 -24 108 -140 131 -140 9 0 28 -9 42 -20 22
-18 38 -20 99 -18 l73 3 3 54 c2 40 -1 57 -12 63 -16 9 -76 126 -76 150 0 8
-9 23 -20 33 -11 10 -20 31 -20 46 0 17 -7 32 -19 38 -12 7 -20 25 -23 55 -3
24 -15 57 -27 72 -11 15 -21 39 -21 53 0 15 -9 34 -20 44 -14 12 -20 29 -20
58 0 62 -74 151 -171 206 -54 30 -56 31 -234 35 -140 3 -189 8 -219 21 -28 13
-67 17 -147 17 -96 0 -113 3 -155 25 -33 17 -63 25 -99 25 -34 0 -57 5 -64 14
-7 8 -25 18 -41 21 -16 3 -38 15 -51 26 -12 10 -31 19 -43 19 -12 0 -32 9 -46
20 -14 11 -30 20 -36 20 -6 0 -56 45 -112 100 l-102 101 0 88 c0 88 0 89 33
113 17 14 39 27 47 31 8 3 239 6 513 6 479 1 499 0 537 -19z m-5603 -490 c23
-18 41 -20 166 -20 120 0 143 -3 160 -17 18 -17 83 -18 976 -23 l956 -5 5
-1590 c3 -950 2 -1595 -4 -1603 -16 -23 -36 7 -36 55 0 45 -13 69 -67 129 -18
19 -32 24 -72 24 -78 0 -130 -35 -272 -181 l-127 -129 -160 0 c-88 0 -173 5
-188 10 -27 11 -27 11 105 143 l131 132 0 54 c0 77 -39 137 -95 145 -51 8 -62
8 -108 0 -33 -5 -67 -35 -254 -221 -196 -194 -220 -215 -259 -222 -24 -5 -46
-6 -49 -2 -4 3 -66 8 -138 11 l-132 5 -3 27 c-3 24 20 51 172 203 l176 175 0
59 c0 53 -4 65 -31 96 -21 24 -40 35 -58 35 -15 0 -37 7 -49 16 -20 14 -24 14
-44 0 -12 -9 -32 -16 -43 -16 -13 0 -89 -69 -215 -195 -107 -107 -200 -195
-207 -195 -7 0 -30 -18 -51 -39 -58 -59 -83 -61 -162 -16 -14 8 -36 15 -50 15
-14 0 -40 14 -58 31 l-33 31 53 56 c28 32 78 82 109 112 31 30 59 64 63 75 3
12 20 29 36 38 17 10 37 34 45 53 8 19 21 34 30 34 16 0 155 134 155 149 0 5
14 14 30 21 17 7 38 26 46 41 8 16 27 38 44 50 16 12 34 34 40 50 7 15 25 33
41 40 17 6 36 24 44 38 8 14 30 43 50 65 33 36 35 42 35 110 0 68 -2 73 -32
100 -30 26 -42 30 -116 34 l-83 5 -305 -307 c-318 -320 -327 -327 -354 -276
-14 27 -7 287 8 302 7 7 12 16 12 21 0 5 135 145 299 310 165 166 311 316 325
333 23 28 26 41 26 107 0 70 -2 77 -26 94 -14 10 -37 28 -51 41 -34 29 -112
31 -137 3 -10 -11 -30 -23 -46 -26 -18 -4 -38 -22 -60 -56 -17 -27 -52 -64
-76 -82 -25 -18 -84 -70 -132 -117 -101 -98 -137 -125 -148 -108 -4 6 -7 80
-7 164 1 143 2 155 24 186 29 41 87 104 163 177 32 31 70 69 85 85 14 16 113
115 219 221 l192 193 0 50 c0 45 -4 54 -47 101 l-46 51 -72 0 -71 0 -194 -195
c-107 -107 -202 -195 -210 -195 -43 1 -42 -4 -44 461 -2 524 -10 489 107 489
54 0 74 -4 94 -20z m2863 -16 c6 -16 10 -571 10 -1517 l-1 -1492 -27 -31 c-34
-38 -113 -84 -145 -84 -13 0 -32 -9 -42 -20 -20 -23 -57 -26 -73 -7 -6 8 -11
540 -13 1564 -4 1469 -3 1553 14 1570 13 14 41 19 126 23 61 3 113 9 117 13
13 13 24 7 34 -19z m884 -220 c23 -9 20 -20 -15 -73 -19 -26 -34 -64 -37 -88
-2 -23 -13 -50 -23 -59 -17 -15 -19 -34 -19 -188 0 -159 1 -173 20 -189 11 -9
20 -29 20 -45 0 -16 9 -37 19 -46 11 -10 22 -29 26 -44 3 -14 24 -43 46 -64
45 -44 46 -49 19 -66 -11 -7 -20 -20 -20 -30 0 -9 -19 -44 -43 -77 l-42 -60
-3 -204 c-3 -192 -2 -206 17 -232 11 -15 23 -39 27 -53 3 -15 14 -31 24 -36
10 -5 21 -23 25 -40 4 -18 19 -37 40 -50 41 -25 51 -57 26 -85 -12 -13 -21
-43 -25 -89 -4 -38 -11 -77 -17 -87 -7 -13 -6 -26 2 -41 6 -12 14 -61 17 -110
4 -68 9 -91 23 -104 23 -21 24 -57 2 -75 -20 -17 -379 -26 -403 -10 -13 9 -15
147 -19 1116 -2 865 0 1109 9 1120 10 12 41 15 150 15 76 0 145 -3 154 -6z
m991 -54 c15 -16 31 -20 84 -20 53 0 74 -5 106 -25 28 -17 55 -24 91 -25 38 0
56 -5 69 -20 15 -16 31 -20 89 -20 73 0 116 -16 116 -44 0 -7 11 -34 25 -60
21 -40 25 -60 25 -139 0 -81 -2 -94 -20 -105 -12 -7 -20 -23 -20 -39 0 -17
-12 -38 -35 -59 -28 -28 -42 -34 -78 -34 -31 0 -49 -6 -62 -20 -16 -18 -31
-20 -133 -20 -102 0 -119 -3 -151 -22 -35 -23 -42 -23 -336 -23 -296 0 -301 0
-329 23 -20 15 -42 22 -73 22 -40 0 -49 5 -98 53 -52 51 -55 56 -55 103 0 32
-7 59 -20 79 -27 41 -27 127 0 162 12 15 20 41 20 62 0 31 8 45 54 89 37 36
62 52 79 52 17 0 32 9 43 25 l16 25 288 0 c274 0 288 -1 305 -20z m595 -895
c4 -3 10 -18 13 -34 4 -17 15 -39 26 -50 16 -16 19 -35 20 -128 2 -97 0 -111
-18 -127 -10 -10 -22 -30 -26 -44 -8 -33 -63 -92 -85 -92 -9 0 -25 -9 -35 -20
-10 -11 -31 -20 -46 -20 -15 0 -49 -11 -75 -25 -42 -22 -59 -25 -158 -25 -100
0 -112 -2 -124 -20 -11 -18 -23 -20 -132 -20 -101 0 -127 -3 -160 -20 -53 -27
-273 -30 -302 -4 -10 10 -41 21 -69 25 -60 10 -120 54 -171 127 -33 47 -33 47
-36 185 l-4 138 54 52 c29 29 73 64 98 77 l45 25 465 5 c469 5 706 3 720 -5z
m26 -767 c24 -24 34 -42 34 -64 0 -17 7 -37 15 -44 19 -16 19 -60 0 -96 -8
-16 -15 -43 -15 -59 0 -50 -101 -135 -160 -135 -26 0 -43 -7 -60 -25 -15 -16
-34 -25 -54 -25 -17 0 -44 -9 -61 -20 -24 -16 -47 -20 -122 -20 -82 0 -94 -2
-105 -20 -12 -19 -24 -20 -281 -20 -254 0 -270 1 -294 20 -14 11 -34 20 -44
20 -10 0 -41 24 -69 53 -46 48 -50 56 -52 107 -5 127 1 167 31 199 l29 31 171
0 c140 0 179 3 209 17 29 13 79 18 239 22 191 6 203 7 225 29 21 19 35 22 99
22 57 0 81 5 104 20 20 13 47 20 79 20 42 0 54 -5 82 -32z m22 -670 c19 -19
14 -89 -8 -123 -11 -16 -22 -48 -26 -71 -6 -43 -45 -83 -94 -99 -14 -4 -31
-16 -38 -26 -10 -15 -26 -19 -66 -19 -39 0 -59 -5 -76 -20 -22 -19 -37 -20
-261 -20 -228 0 -239 1 -249 20 -7 12 -21 20 -38 20 -17 0 -39 12 -60 34 -29
30 -32 40 -34 96 -2 84 7 90 133 90 75 0 107 4 140 20 37 16 66 20 180 20 123
0 138 2 154 20 15 16 31 20 87 20 60 0 71 3 90 25 19 22 30 25 88 25 38 0 71
-5 78 -12z"/>
<path d="M18064 5792 c-64 -56 -74 -87 -74 -219 0 -79 -4 -123 -12 -131 -8 -8
-51 -12 -129 -12 l-117 0 -26 -31 c-20 -24 -26 -41 -25 -77 2 -81 10 -96 56
-104 23 -4 54 -13 70 -22 19 -9 34 -11 44 -5 8 5 38 9 67 9 47 0 53 -3 62 -26
6 -15 10 -250 10 -598 0 -558 1 -574 20 -599 14 -17 20 -40 20 -75 0 -33 6
-57 19 -73 10 -13 22 -35 26 -48 11 -36 100 -121 126 -121 13 0 34 -11 48 -24
25 -23 34 -24 161 -26 74 -2 181 -2 237 -1 94 1 104 3 125 25 13 14 37 26 53
28 23 2 31 9 33 28 2 14 13 35 25 47 l20 23 -28 55 -27 55 -127 0 c-92 0 -134
-4 -155 -15 -36 -19 -57 -19 -82 0 -10 8 -33 15 -50 15 -36 0 -94 54 -94 88 0
12 -11 32 -25 44 l-25 22 0 568 0 568 41 20 c27 14 60 21 102 22 144 1 174 1
212 -2 64 -4 148 21 183 55 26 24 32 38 32 71 0 33 -6 46 -34 73 l-35 34 -211
-2 c-228 -2 -274 4 -284 42 -3 12 -6 83 -6 157 l0 135 -34 28 c-30 23 -44 27
-98 27 -54 -1 -67 -5 -94 -28z"/>
<path d="M16539 5470 c-150 -4 -180 -8 -196 -22 -14 -13 -36 -18 -72 -18 -38
0 -60 -6 -78 -20 -14 -11 -41 -20 -59 -20 -24 0 -41 -8 -56 -25 -12 -14 -32
-25 -46 -25 -13 0 -37 -13 -53 -29 -24 -24 -29 -38 -29 -76 0 -42 4 -51 37
-81 l37 -34 91 6 c60 5 100 13 120 26 22 13 50 18 103 18 53 0 83 5 112 20 32
16 59 20 150 20 91 0 118 -4 150 -20 24 -12 59 -20 89 -20 49 0 50 0 145 -97
l96 -97 0 -57 c0 -41 5 -63 20 -82 23 -29 28 -115 8 -135 -9 -9 -102 -12 -358
-12 -334 0 -348 -1 -365 -20 -14 -15 -31 -20 -69 -20 -34 0 -61 -7 -81 -20
-16 -11 -44 -20 -61 -20 -20 0 -38 -9 -52 -25 -12 -14 -33 -25 -46 -25 -17 0
-49 -27 -114 -95 -82 -85 -91 -99 -97 -142 -7 -51 -8 -55 -30 -93 -10 -17 -15
-56 -15 -122 0 -87 2 -98 20 -108 16 -8 20 -21 20 -56 0 -40 6 -53 44 -97 24
-29 46 -63 48 -76 2 -17 12 -27 32 -32 16 -4 50 -26 77 -48 28 -25 58 -41 73
-41 15 0 30 -8 36 -20 10 -18 21 -20 103 -20 66 0 99 -4 114 -15 19 -13 26
-13 63 0 26 9 79 15 135 15 79 0 94 3 110 20 13 14 31 20 60 20 31 0 47 6 65
25 14 15 35 25 52 25 15 0 28 4 28 9 0 12 86 71 103 71 6 0 30 21 53 46 24 25
47 43 53 39 7 -3 11 -43 11 -97 0 -91 0 -91 35 -124 31 -31 39 -34 98 -34 58
0 67 3 96 30 22 22 31 39 31 63 0 18 7 59 15 91 10 37 12 63 6 74 -5 10 -11
271 -13 586 l-3 569 -22 15 c-15 9 -23 25 -23 41 0 16 -10 37 -25 51 -14 13
-25 34 -25 46 0 35 -184 214 -220 214 -15 0 -35 9 -45 20 -13 14 -31 20 -61
20 -33 0 -46 5 -59 23 -18 25 -41 26 -366 17z m548 -1022 l33 -32 0 -134 0
-133 -72 -71 c-39 -39 -92 -82 -117 -95 -25 -14 -56 -35 -69 -49 -13 -14 -34
-24 -50 -24 -16 0 -32 -8 -40 -20 -10 -17 -23 -20 -80 -20 -37 0 -85 -7 -107
-14 -35 -12 -48 -12 -95 0 -30 8 -82 14 -117 14 -52 0 -64 3 -73 20 -7 12 -21
20 -37 20 -37 0 -93 55 -93 91 0 17 -8 32 -24 42 -22 15 -24 23 -25 105 l-2
90 76 76 c60 60 83 76 105 76 19 0 33 7 40 20 10 18 21 20 105 20 60 0 111 6
141 16 41 14 56 14 106 4 51 -11 61 -11 76 3 20 18 58 23 192 25 93 2 94 2
127 -30z"/>
<path d="M19680 5460 c-8 -15 -21 -20 -55 -20 -30 0 -52 -7 -72 -23 -15 -12
-39 -28 -53 -35 -51 -26 -67 -39 -162 -135 -54 -54 -98 -105 -98 -114 0 -8 -9
-26 -20 -40 -11 -14 -20 -36 -20 -48 0 -12 -9 -30 -20 -40 -11 -10 -20 -31
-20 -46 0 -18 -8 -34 -20 -41 -17 -11 -20 -24 -20 -85 0 -62 -3 -75 -22 -93
-22 -20 -23 -30 -26 -194 -4 -171 -3 -174 20 -195 20 -19 23 -33 26 -111 3
-72 8 -92 23 -106 10 -9 19 -30 19 -45 0 -18 7 -32 20 -39 13 -7 20 -21 20
-38 0 -20 13 -40 45 -70 24 -23 47 -53 51 -67 4 -15 20 -33 38 -42 17 -9 35
-22 39 -29 4 -8 13 -14 20 -14 7 0 30 -21 51 -45 29 -33 47 -45 67 -45 18 0
32 -7 39 -20 9 -16 21 -20 64 -20 44 0 56 -4 69 -22 14 -22 21 -23 148 -24 80
0 151 -6 175 -13 34 -11 45 -11 65 0 15 8 73 15 156 17 113 4 134 7 149 23 12
14 31 19 64 19 34 0 52 5 65 20 10 11 29 20 42 20 13 0 33 11 45 25 12 14 32
25 46 25 13 0 37 13 53 29 27 27 29 35 29 101 0 68 -1 71 -27 83 -16 7 -40 20
-56 31 -34 23 -97 16 -127 -14 -11 -11 -33 -20 -48 -20 -16 0 -37 -9 -47 -20
-13 -15 -31 -20 -66 -20 -38 0 -51 -4 -59 -20 -10 -19 -21 -20 -240 -20 -219
0 -230 1 -240 20 -8 16 -21 20 -60 20 -46 0 -54 4 -91 43 -23 23 -48 41 -55
39 -26 -5 -50 17 -78 73 -16 31 -37 60 -47 66 -11 5 -19 19 -19 30 0 12 -9 32
-20 46 -11 14 -20 38 -20 53 0 15 -9 35 -20 45 -17 15 -20 29 -18 69 l3 51
659 3 659 2 32 34 32 34 -4 179 c-4 153 -7 182 -24 209 -10 17 -19 45 -19 63
0 20 -7 35 -20 43 -12 8 -20 24 -20 40 0 18 -10 36 -25 50 -14 12 -25 32 -25
44 0 34 -181 214 -215 214 -14 0 -30 9 -37 20 -8 12 -24 20 -40 20 -18 0 -36
10 -50 25 -17 19 -31 25 -63 25 -29 0 -47 6 -60 20 -17 19 -31 20 -246 20
-218 0 -229 -1 -239 -20z m475 -260 c10 -11 29 -20 42 -20 34 0 223 -191 223
-225 0 -14 9 -30 20 -37 17 -11 20 -24 20 -84 0 -58 4 -74 20 -89 26 -24 25
-27 -10 -53 -28 -21 -31 -22 -54 -7 -22 15 -27 15 -55 1 -36 -19 -63 -20 -79
-4 -9 9 -17 10 -30 1 -12 -7 -150 -12 -417 -14 l-400 -4 -27 24 c-34 30 -37
82 -8 126 11 17 20 44 20 61 0 18 8 38 20 49 11 10 20 26 20 36 0 26 197 219
224 219 13 0 31 9 41 20 17 19 31 20 215 20 184 0 198 -1 215 -20z"/>
<path d="M12260 5445 c-14 -15 -35 -25 -51 -25 -18 0 -32 -7 -39 -20 -8 -15
-21 -20 -50 -20 -32 0 -50 -9 -94 -45 -31 -25 -61 -45 -68 -45 -23 0 -128
-104 -128 -126 0 -11 -20 -40 -45 -65 -31 -30 -45 -52 -45 -71 0 -17 -8 -31
-20 -38 -13 -7 -20 -21 -20 -39 0 -15 -9 -36 -19 -45 -16 -14 -20 -34 -23
-111 -2 -76 -7 -97 -23 -115 -17 -19 -20 -39 -23 -151 -3 -124 -3 -131 22
-174 21 -34 26 -57 26 -108 0 -51 4 -67 20 -82 11 -10 20 -31 20 -46 0 -18 7
-32 20 -39 13 -7 20 -21 20 -39 0 -17 10 -36 25 -49 14 -12 25 -32 25 -45 0
-34 187 -217 222 -217 17 0 31 -8 38 -20 7 -13 21 -20 40 -20 18 0 33 -7 39
-19 7 -12 26 -20 62 -24 32 -4 61 -14 74 -27 18 -17 35 -20 112 -20 55 0 104
-5 124 -14 29 -12 38 -12 59 0 17 9 61 13 134 14 100 0 110 2 138 25 22 18 41
25 73 25 34 0 47 5 55 20 6 12 21 20 37 20 18 0 44 18 90 63 35 34 75 64 90
67 24 5 46 32 79 100 4 8 19 27 33 41 40 41 50 55 57 84 4 14 15 32 25 38 14
9 19 24 19 61 0 37 6 56 21 72 21 22 21 30 20 306 -1 270 -2 284 -21 297 -16
10 -20 25 -20 66 0 38 -5 58 -20 75 -11 13 -20 31 -20 41 0 10 -11 26 -25 35
-16 11 -25 26 -25 43 0 38 -225 261 -263 261 -16 0 -30 8 -37 20 -7 13 -21 20
-39 20 -16 0 -37 10 -51 25 -19 20 -33 25 -71 25 -38 0 -51 4 -59 20 -10 19
-21 20 -254 20 l-243 0 -23 -25z m437 -259 c16 -18 31 -24 63 -24 28 -1 50 -8
64 -21 11 -10 43 -31 70 -45 64 -34 146 -117 146 -149 0 -15 10 -31 25 -41 17
-11 25 -26 25 -46 0 -19 7 -33 20 -40 18 -10 20 -21 20 -107 0 -78 4 -104 21
-139 l22 -43 -22 -41 c-17 -32 -21 -58 -21 -129 0 -75 -3 -91 -20 -106 -11
-10 -20 -30 -20 -45 0 -19 -9 -33 -26 -45 -18 -11 -24 -23 -21 -36 8 -30 -139
-179 -176 -179 -16 0 -30 -8 -37 -20 -7 -13 -21 -20 -39 -20 -16 0 -37 -10
-51 -25 -23 -25 -25 -25 -195 -25 -156 0 -175 2 -197 20 -14 10 -45 22 -69 26
-38 6 -57 20 -161 124 -91 90 -118 123 -118 143 0 16 -8 30 -20 37 -16 9 -20
21 -20 64 0 40 -5 57 -20 71 -18 17 -20 31 -20 179 0 144 2 164 20 191 13 20
20 47 20 82 0 42 4 54 20 63 12 7 20 21 20 37 0 20 24 50 99 124 58 59 106 99
118 99 11 0 28 9 38 20 10 11 31 20 46 20 16 0 36 8 46 19 27 28 37 29 189 30
136 1 141 0 161 -23z"/>
<path d="M13947 5445 c-15 -14 -34 -25 -42 -25 -8 0 -19 -9 -25 -19 -7 -13
-10 -305 -10 -876 l0 -857 29 -29 c27 -26 35 -29 99 -29 63 0 73 3 101 29 18
17 31 39 31 53 0 14 9 33 20 43 20 18 20 31 20 583 l0 565 97 99 c76 77 103
98 125 98 17 0 31 7 38 20 6 12 21 20 36 20 14 0 35 11 48 25 17 19 33 25 63
25 26 0 48 7 63 20 20 17 37 20 127 20 90 0 109 -3 130 -20 14 -11 38 -20 53
-20 16 0 35 -10 48 -25 12 -14 30 -25 40 -25 23 0 42 -19 42 -42 0 -10 11 -28
25 -40 14 -12 25 -28 25 -36 0 -7 9 -25 20 -39 20 -25 20 -41 20 -635 l0 -608
52 -55 c51 -54 53 -55 108 -55 48 0 63 5 98 32 l42 32 0 656 c0 644 0 655 -20
668 -16 9 -20 23 -20 62 0 39 -4 53 -20 62 -12 8 -20 24 -20 39 0 19 -25 51
-102 127 -63 62 -111 102 -123 102 -11 0 -28 9 -38 20 -10 12 -29 20 -47 20
-19 0 -33 7 -40 20 -10 19 -21 20 -215 20 -194 0 -205 -1 -217 -20 -8 -13 -24
-20 -42 -20 -18 0 -37 -9 -52 -25 -13 -14 -34 -25 -48 -25 -15 0 -30 -8 -36
-20 -7 -12 -21 -20 -38 -20 -20 0 -47 -21 -113 -86 -50 -49 -92 -84 -98 -80
-6 4 -11 33 -11 65 0 43 -5 65 -20 84 -11 14 -20 38 -20 54 0 34 -16 53 -45
53 -12 0 -30 9 -40 20 -24 27 -64 25 -98 -5z"/>
</g>
</svg>
